<?xml version="1.0" standalone="no"?>
<!DOCTYPE svg PUBLIC "-//W3C//DTD SVG 20010904//EN"
 "http://www.w3.org/TR/2001/REC-SVG-20010904/DTD/svg10.dtd">
<svg version="1.0" xmlns="http://www.w3.org/2000/svg"
 width="500.000000pt" height="500.000000pt" viewBox="0 0 500.000000 500.000000"
 preserveAspectRatio="xMidYMid meet">
<metadata>
Created by potrace 1.14, written by Peter Selinger 2001-2017
</metadata>
<g transform="translate(0.000000,500.000000) scale(0.100000,-0.100000)"
fill="#000000" stroke="none">
<path d="M450 2405 c0 -1026 3 -1865 8 -1866 42 -6 102 -2 105 6 2 5 4 598 3
1316 -1 864 2 1306 9 1306 6 0 11 -23 11 -51 1 -28 5 -78 8 -111 16 -135 18
-152 21 -190 2 -22 4 -40 5 -40 4 0 10 -46 12 -97 2 -32 5 -58 8 -58 5 0 11
-64 14 -137 0 -18 3 -33 6 -33 3 0 7 -15 8 -32 4 -51 12 -130 16 -158 7 -42
18 -133 22 -170 2 -19 5 -55 8 -80 2 -25 7 -61 11 -80 4 -19 8 -55 11 -80 2
-25 7 -67 10 -95 4 -27 8 -67 8 -87 1 -21 4 -38 7 -38 5 0 12 -67 11 -117 0
-13 3 -23 7 -23 4 0 7 -21 8 -47 1 -27 4 -66 8 -88 7 -43 10 -68 19 -160 4
-33 9 -71 12 -85 2 -14 6 -43 9 -65 2 -22 7 -62 11 -90 3 -27 8 -63 9 -80 2
-16 6 -55 10 -85 3 -30 8 -71 10 -90 2 -19 4 -35 5 -35 1 0 4 -25 6 -55 2 -30
6 -60 8 -65 3 -9 51 -12 87 -6 3 1 11 12 17 26 9 19 9 25 -1 25 -8 0 -8 3 2 9
8 5 9 10 3 12 -6 2 -12 28 -14 56 -2 29 -7 53 -12 53 -5 0 -3 6 3 13 6 8 8 16
5 19 -7 8 -13 45 -16 101 -2 26 -5 47 -8 47 -3 0 -6 21 -7 48 -3 58 -8 104
-18 162 -4 25 -9 65 -10 90 -2 25 -6 52 -9 61 -4 9 -8 47 -9 83 -1 36 -4 66
-7 66 -3 0 -7 17 -9 38 -1 20 -4 51 -6 67 -2 17 -7 54 -10 82 -7 66 -13 118
-15 118 0 0 -3 18 -5 40 -6 58 -14 123 -20 164 -10 71 -24 193 -30 261 -2 19
-4 35 -5 35 -3 0 -9 53 -13 110 -2 28 -5 55 -8 60 -3 6 -7 35 -8 65 -2 30 -8
58 -14 62 -9 6 -8 8 1 8 8 0 10 5 6 12 -4 6 -9 26 -10 42 -1 17 -4 48 -6 68
-2 21 -5 38 -8 38 -3 0 -4 19 -4 42 1 24 -1 47 -4 52 -3 5 -6 26 -7 46 -1 21
-5 42 -9 48 -3 6 -2 13 3 16 6 4 4 17 -4 33 -11 21 -12 29 -2 35 7 4 7 8 2 8
-6 0 -11 15 -12 33 -1 17 -5 52 -8 77 -3 25 -7 54 -8 65 -2 11 -6 25 -9 31 -4
6 -1 11 6 11 12 0 21 -28 42 -129 1 -5 3 -10 4 -13 1 -3 4 -9 5 -15 1 -5 4
-13 5 -17 1 -5 2 -11 2 -14 -1 -4 3 -22 9 -40 6 -19 13 -45 16 -59 8 -38 9
-43 18 -63 4 -10 5 -21 1 -24 -3 -3 -1 -12 4 -18 6 -7 11 -24 12 -39 1 -14 6
-26 11 -26 4 0 6 -4 3 -9 -4 -5 -1 -22 5 -38 6 -15 12 -43 13 -61 2 -19 7 -37
12 -40 5 -4 10 -16 11 -27 1 -17 10 -59 17 -90 2 -5 6 -18 10 -27 4 -9 5 -22
1 -28 -3 -5 -1 -10 5 -10 7 0 10 -6 7 -14 -3 -8 -3 -17 1 -20 3 -4 7 -12 8
-19 2 -7 6 -25 9 -41 3 -16 9 -36 13 -45 4 -9 7 -25 7 -36 0 -11 2 -22 6 -25
4 -3 9 -18 12 -35 3 -16 8 -38 12 -48 4 -10 9 -26 10 -35 6 -50 19 -102 25
-102 5 0 7 -8 6 -17 -2 -9 3 -38 11 -62 7 -25 15 -56 18 -69 2 -12 11 -46 19
-75 8 -29 17 -63 20 -77 3 -14 10 -45 17 -70 6 -25 12 -52 14 -60 2 -8 4 -15
5 -15 1 0 3 -7 5 -15 1 -8 13 -55 25 -105 13 -49 23 -96 23 -102 0 -7 4 -13 8
-13 5 0 6 -7 3 -15 -3 -8 -2 -20 2 -27 5 -7 10 -21 11 -30 2 -10 12 -50 22
-90 11 -40 22 -84 25 -98 12 -58 15 -70 26 -91 8 -13 8 -19 1 -15 -6 4 -4 -9
4 -29 9 -19 13 -35 10 -35 -3 0 -1 -8 4 -18 12 -22 23 -67 25 -99 0 -13 4 -23
7 -23 3 0 6 -6 6 -12 0 -7 8 -42 18 -78 9 -36 18 -72 20 -80 2 -17 52 -21 72
-6 7 4 13 5 13 0 0 -4 6 1 14 12 8 10 11 23 6 29 -4 5 -10 24 -13 42 -3 17 -8
36 -11 41 -3 5 -8 22 -10 38 -9 47 -24 109 -26 109 -1 0 -3 7 -5 15 -10 46
-15 69 -25 105 -6 22 -13 49 -14 60 -2 11 -6 28 -11 38 -4 10 -5 20 -2 24 3 3
0 12 -8 19 -8 8 -12 20 -9 27 2 7 -2 29 -10 49 -8 19 -12 38 -9 41 3 4 1 12
-5 19 -6 7 -13 29 -15 48 -3 19 -6 35 -7 35 -1 0 -3 7 -5 15 -1 8 -10 42 -18
74 -9 33 -14 63 -11 68 3 4 1 8 -3 8 -8 0 -36 106 -37 140 0 8 -3 17 -7 20 -4
3 -9 21 -12 40 -3 19 -10 51 -16 70 -6 19 -14 48 -17 65 -3 16 -9 34 -14 41
-6 6 -7 14 -4 17 4 3 3 14 -1 24 -5 10 -9 26 -10 36 -2 9 -3 18 -5 20 -2 3
-10 39 -12 60 -1 9 -5 17 -8 17 -3 0 -7 8 -8 18 -3 31 -7 47 -15 60 -5 6 -6
12 -3 12 3 0 -2 23 -10 50 -8 28 -12 56 -8 62 5 7 3 8 -5 4 -8 -5 -11 -3 -10
5 2 8 0 23 -4 34 -3 11 -8 31 -11 45 -3 14 -9 40 -15 58 -5 17 -8 32 -5 32 3
0 0 9 -6 19 -5 11 -13 37 -16 58 -3 21 -10 45 -15 54 -4 9 -6 19 -3 22 3 3 2
12 -2 19 -5 7 -9 18 -10 23 -6 29 -14 63 -22 90 -5 17 -8 38 -6 48 1 9 -1 17
-5 17 -4 0 -13 28 -20 63 -7 34 -14 67 -16 72 -1 6 -3 13 -4 17 -1 4 -8 29
-16 55 -8 26 -12 49 -10 52 3 2 -1 11 -7 19 -7 8 -13 20 -13 26 -1 22 -17 101
-23 111 -3 5 -7 16 -8 25 -3 20 -12 55 -14 55 -1 0 -3 9 -5 20 -1 11 -6 35
-10 53 -5 22 -4 32 4 32 7 0 10 -4 7 -8 -3 -5 1 -21 9 -35 8 -15 15 -31 16
-35 1 -4 6 -18 11 -32 6 -14 11 -29 12 -35 1 -5 4 -14 8 -20 3 -5 20 -46 38
-90 17 -44 41 -102 53 -129 12 -27 22 -52 23 -55 0 -3 8 -23 17 -45 9 -21 17
-40 17 -41 0 -1 10 -24 22 -51 12 -27 22 -51 23 -54 0 -7 52 -134 73 -180 9
-19 17 -37 17 -40 10 -39 19 -60 26 -60 5 0 8 -3 8 -7 -3 -17 14 -73 22 -73 5
0 9 -11 9 -24 0 -13 5 -26 10 -28 6 -2 12 -13 13 -26 0 -12 5 -22 10 -22 5 0
7 -7 3 -15 -3 -8 -1 -15 4 -15 6 0 10 -5 10 -10 0 -6 9 -29 20 -52 11 -22 17
-45 14 -49 -3 -5 0 -9 5 -9 6 0 11 -9 11 -19 0 -11 5 -23 10 -26 6 -3 10 -15
10 -26 0 -10 5 -19 10 -19 6 0 10 -6 10 -13 0 -17 65 -181 117 -294 10 -21 16
-41 15 -45 -1 -4 9 -29 22 -55 14 -26 30 -67 38 -91 7 -23 16 -42 20 -42 5 0
8 -6 8 -14 0 -8 16 -52 36 -98 19 -46 37 -90 39 -99 2 -9 8 -25 13 -35 5 -11
14 -30 20 -44 6 -14 20 -47 31 -74 12 -27 21 -55 21 -62 0 -8 5 -14 10 -14 6
0 10 -6 9 -12 -2 -7 7 -35 20 -63 55 -121 61 -136 61 -145 0 -5 11 -33 24 -62
26 -57 36 -88 35 -102 0 -5 5 -12 13 -17 7 -5 13 -12 13 -16 0 -17 37 -103 44
-103 4 0 16 15 26 34 11 19 23 32 28 29 6 -3 7 -2 4 4 -4 5 2 19 11 29 10 10
40 51 67 89 27 39 56 75 65 82 8 7 11 13 5 13 -5 0 -5 4 2 8 6 4 34 38 61 76
49 67 50 68 63 45 7 -13 21 -40 32 -59 11 -19 31 -55 45 -80 51 -96 57 -106
76 -127 11 -13 16 -23 13 -23 -4 0 4 -18 18 -40 14 -22 25 -44 25 -50 0 -5 4
-10 9 -10 5 0 11 -9 14 -20 9 -33 21 -23 56 42 19 35 40 70 47 79 8 8 14 22
14 29 0 7 6 21 14 29 8 9 26 39 42 66 15 28 36 64 46 80 10 17 21 37 25 45 3
8 13 25 21 37 l14 23 19 -24 c10 -13 19 -29 19 -35 0 -6 4 -11 8 -11 4 0 39
-44 77 -98 84 -118 86 -119 108 -140 9 -9 17 -21 17 -27 0 -5 14 -25 30 -44
17 -18 30 -38 30 -44 0 -6 9 -2 20 8 11 10 17 21 15 25 -8 13 6 40 18 33 6 -3
7 -1 3 6 -4 6 -4 17 1 24 5 7 25 53 43 102 19 50 37 92 40 95 3 3 6 12 8 20 2
8 12 35 24 60 11 25 21 51 21 58 0 6 4 12 9 12 4 0 8 6 8 14 0 8 4 25 9 38 5
13 9 27 9 32 0 5 5 12 11 16 6 3 13 16 15 27 3 12 12 35 21 52 9 18 13 36 10
41 -3 6 -2 10 4 10 7 0 31 51 36 80 1 3 12 28 25 55 12 28 23 56 23 63 0 6 4
12 9 12 4 0 7 3 6 8 -2 8 18 59 32 85 6 10 8 22 5 27 -4 6 -2 10 2 10 7 0 34
58 38 80 0 3 8 21 16 40 30 66 43 95 45 103 1 4 3 9 4 12 1 3 3 8 4 13 1 4 10
25 20 47 10 22 26 63 37 90 11 28 24 59 29 70 27 59 53 129 53 141 0 8 3 14 7
14 3 0 12 17 20 37 7 21 20 54 28 73 9 19 16 37 17 40 1 3 8 21 16 40 9 19 24
58 34 85 10 28 25 59 32 71 7 11 10 24 6 27 -3 4 -1 7 5 7 7 0 11 3 10 8 -1 4
4 23 11 42 8 19 15 37 16 40 0 3 9 23 19 45 10 22 19 45 20 50 1 6 7 19 12 30
6 11 21 47 34 80 13 33 27 65 32 72 6 7 7 16 4 22 -3 5 1 12 10 15 8 3 13 10
10 15 -4 5 0 22 8 38 22 42 52 113 65 155 7 21 16 40 21 43 5 3 7 12 3 20 -3
8 0 15 6 15 6 0 11 4 11 9 0 5 5 22 11 38 6 15 10 30 11 33 0 3 4 10 10 17 5
7 6 18 2 25 -5 10 -4 10 6 1 10 -9 10 -21 1 -55 -18 -68 -21 -77 -25 -96 -2
-9 -9 -37 -16 -62 -7 -25 -13 -52 -15 -60 -2 -8 -8 -35 -15 -60 -7 -25 -13
-52 -15 -60 -2 -8 -9 -35 -16 -60 -7 -25 -13 -52 -13 -60 -1 -8 -5 -21 -9 -27
-5 -7 -6 -13 -3 -13 3 0 -1 -18 -9 -41 -8 -23 -13 -45 -10 -49 3 -5 1 -11 -4
-14 -4 -3 -12 -25 -16 -48 -5 -24 -10 -47 -11 -53 -1 -5 -2 -16 -3 -23 0 -7
-4 -11 -8 -9 -5 3 -9 -7 -9 -21 -1 -15 -4 -38 -8 -52 -4 -14 -9 -37 -10 -51
-2 -14 -8 -34 -13 -45 -6 -10 -9 -27 -8 -36 2 -10 0 -18 -4 -18 -4 0 -8 -6 -8
-12 -1 -19 -11 -68 -22 -105 -5 -17 -7 -34 -3 -37 3 -3 1 -6 -5 -6 -5 0 -10
-6 -11 -12 -4 -30 -10 -63 -12 -63 -1 0 -4 -16 -7 -35 -2 -19 -8 -37 -12 -40
-4 -3 -6 -12 -6 -20 1 -8 -2 -19 -6 -25 -3 -5 -6 -17 -6 -25 -1 -19 -26 -113
-33 -120 -3 -3 -6 -16 -7 -30 -5 -52 -8 -60 -17 -60 -5 0 -7 -2 -4 -5 5 -5 -1
-31 -32 -154 -5 -19 -7 -38 -4 -42 2 -4 0 -10 -6 -14 -6 -4 -8 -11 -5 -16 4
-5 1 -9 -4 -9 -6 0 -11 -10 -11 -22 0 -33 -23 -128 -31 -128 -4 0 -6 -8 -5
-17 2 -9 -3 -38 -11 -63 -7 -25 -13 -46 -13 -47 0 -2 0 -4 -1 -5 -1 -6 -8 -34
-13 -56 -3 -13 -8 -32 -11 -42 -3 -10 -8 -28 -10 -39 -3 -12 -8 -31 -11 -44
-3 -12 -7 -31 -9 -42 -1 -11 -8 -33 -14 -49 -7 -16 -10 -35 -7 -43 3 -7 1 -13
-4 -13 -6 0 -9 -3 -9 -7 1 -5 0 -10 -1 -13 -1 -3 -3 -12 -5 -20 -8 -36 -15
-72 -20 -95 -3 -13 -9 -35 -15 -49 -5 -13 -6 -27 -3 -30 4 -3 2 -6 -4 -6 -6 0
-9 -11 -8 -25 2 -14 -2 -25 -8 -25 -5 0 -8 -3 -4 -6 3 -3 2 -17 -3 -30 -8 -20
-6 -24 10 -24 10 0 21 -4 24 -8 8 -13 71 -8 69 6 -2 6 0 12 5 12 4 0 8 11 8
25 1 14 5 33 10 43 4 9 8 25 9 35 2 9 3 18 5 20 1 1 3 9 5 17 2 8 7 26 10 40
3 14 8 35 11 47 2 12 8 33 13 45 5 13 9 26 10 31 0 4 1 8 2 10 0 1 2 17 4 35
2 18 9 40 15 48 7 8 10 14 7 14 -3 0 -1 15 4 33 6 17 12 43 14 57 1 14 8 39
15 55 6 17 11 30 10 30 -1 0 1 11 4 25 3 14 8 36 10 50 3 14 5 25 6 25 1 0 3
7 5 15 2 8 7 26 10 40 4 14 7 34 8 45 1 11 5 22 9 25 3 3 9 21 12 40 4 19 8
40 10 45 1 6 8 36 16 68 7 31 17 57 21 57 4 0 6 10 4 21 -3 12 -1 27 3 33 3 6
8 22 10 35 2 14 7 32 11 40 5 9 7 24 6 34 -2 9 2 17 8 17 5 0 8 2 5 6 -3 3 3
37 13 77 10 40 21 85 24 101 3 16 8 33 11 38 3 4 7 18 10 30 12 56 14 64 20
88 3 14 7 33 7 43 1 9 6 17 11 17 5 0 7 3 4 6 -4 3 -2 20 3 37 6 18 12 43 15
57 3 14 8 34 11 45 8 24 8 21 18 70 13 56 12 55 14 58 2 1 5 13 8 27 7 39 11
55 13 55 1 0 3 7 5 15 4 16 12 48 20 80 3 11 7 29 10 40 11 45 16 66 21 87 2
12 9 34 14 48 5 14 8 25 6 25 -2 0 2 20 9 44 8 24 11 47 8 50 -4 3 -1 6 5 6 6
0 11 8 10 18 0 18 2 25 25 114 8 31 12 59 9 62 -3 3 -1 6 5 6 6 0 11 6 10 13
-1 35 4 58 12 52 10 -6 1 -140 -9 -140 -1 0 -3 -22 -5 -50 -2 -27 -7 -70 -10
-95 -3 -25 -7 -57 -7 -72 -1 -16 -4 -28 -7 -28 -3 0 -6 -19 -7 -42 0 -24 -4
-68 -9 -98 -4 -30 -8 -70 -8 -87 0 -18 -3 -33 -7 -33 -3 0 -6 -12 -7 -27 -2
-72 -7 -123 -12 -123 -3 0 -7 -28 -9 -63 -2 -56 -8 -102 -12 -102 -1 0 -3 -18
-4 -40 -2 -22 -6 -62 -10 -90 -4 -27 -9 -70 -12 -95 -3 -25 -7 -56 -8 -70 -11
-74 -18 -149 -20 -182 0 -21 -4 -38 -9 -38 -4 0 -5 -11 -3 -25 3 -13 2 -27 -2
-29 -4 -2 -7 -27 -7 -55 1 -28 -2 -51 -5 -51 -3 0 -6 -17 -5 -37 0 -21 -2 -42
-4 -48 -3 -5 -6 -21 -7 -35 -1 -14 -2 -25 -3 -25 -1 0 -4 -18 -6 -40 -1 -22
-6 -62 -9 -90 -4 -27 -9 -70 -12 -95 -8 -71 -13 -112 -18 -150 -3 -19 -8 -52
-10 -74 -3 -21 -8 -41 -11 -44 -2 -3 0 -11 6 -19 6 -7 7 -13 2 -13 -5 0 -10
-18 -11 -39 -2 -21 -5 -54 -8 -72 -2 -19 -7 -56 -10 -84 -3 -27 -8 -57 -11
-65 -11 -29 -9 -60 4 -60 7 0 13 -3 13 -7 0 -13 68 -9 81 4 7 7 13 34 14 60 2
26 3 48 5 48 1 0 3 18 6 40 2 22 6 60 9 85 3 25 7 59 8 75 1 17 6 36 10 43 5
7 4 12 -3 12 -6 0 -8 4 -5 10 10 16 17 52 18 97 1 24 7 43 12 43 6 0 3 5 -5
10 -8 5 -10 10 -5 10 6 0 11 8 11 18 0 9 4 46 8 82 5 36 9 76 11 90 2 14 6 45
9 70 4 25 8 61 10 80 6 53 18 164 20 175 1 6 5 16 9 23 5 7 3 12 -4 12 -7 0
-8 4 -2 12 5 7 9 20 8 28 -1 8 2 27 6 43 5 18 4 27 -4 27 -9 0 -9 2 -1 8 7 4
15 39 19 77 4 39 8 79 9 90 1 11 4 25 7 30 3 6 5 29 4 53 -1 23 1 42 4 42 3 0
6 23 6 50 0 28 2 50 6 50 3 0 6 10 6 23 2 27 10 106 17 167 4 25 9 65 12 90 3
25 7 59 9 75 7 45 16 116 20 155 2 19 7 55 10 80 3 25 7 61 9 80 3 19 8 60 12
90 4 30 7 72 8 92 1 21 3 38 6 38 3 0 6 15 7 33 1 55 7 96 12 91 3 -3 6 -591
7 -1307 1 -716 2 -1304 3 -1307 1 -4 74 -5 104 -1 7 1 10 3731 2 3731 -7 0
-43 -38 -135 -141 -46 -52 -99 -109 -117 -126 -18 -18 -32 -33 -29 -33 2 0
-13 -17 -33 -38 -48 -51 -177 -191 -331 -362 -47 -51 -104 -113 -128 -137 -23
-24 -42 -46 -42 -48 0 -3 -25 -30 -55 -60 -30 -31 -55 -58 -55 -59 0 -2 -17
-21 -37 -43 -21 -21 -74 -79 -118 -127 -44 -49 -97 -106 -118 -127 -21 -22
-37 -39 -34 -39 2 0 -24 -29 -57 -64 -123 -130 -156 -168 -156 -177 0 -6 -4
-7 -10 -4 -5 3 -10 3 -10 -2 0 -4 -22 -32 -49 -60 -27 -29 -48 -53 -46 -53 2
0 -15 -19 -38 -43 -89 -91 -187 -202 -187 -210 0 -4 -4 -5 -10 -2 -5 3 -10 1
-10 -4 0 -6 -19 -31 -42 -55 -38 -39 -138 -148 -187 -205 -10 -12 -23 -21 -29
-21 -6 0 -33 23 -59 52 -26 29 -58 62 -70 74 -13 12 -23 24 -23 27 0 3 -28 34
-62 70 -35 35 -74 78 -87 95 -13 18 -29 29 -35 25 -6 -3 -8 -3 -4 1 7 8 -9 29
-77 100 -22 23 -76 82 -120 130 -44 49 -96 106 -115 126 -19 21 -69 75 -110
121 -41 45 -85 93 -97 105 -12 12 -19 25 -16 28 4 3 -1 6 -10 6 -9 0 -17 3
-17 8 0 4 -23 32 -51 62 -165 181 -217 237 -246 266 -18 18 -33 35 -33 38 0 3
-17 23 -37 44 -21 21 -60 63 -88 93 -27 31 -90 99 -140 153 -49 54 -101 111
-115 126 -81 89 -180 198 -210 230 -19 20 -63 68 -96 106 -83 92 -142 154
-149 154 -3 0 -5 -839 -5 -1865z m317 960 c0 -8 -4 -12 -9 -9 -5 3 -6 10 -3
15 9 13 12 11 12 -6z m163 -76 c0 -5 -5 -9 -12 -9 -6 0 -8 3 -5 7 4 3 1 13 -6
22 -11 14 -10 14 6 2 9 -7 17 -17 17 -22z m3195 4 c-6 -26 -29 -84 -76 -190
-11 -24 -19 -45 -19 -47 0 -2 -10 -26 -22 -53 -11 -26 -22 -55 -24 -63 -2 -8
-8 -16 -14 -18 -5 -2 -8 -8 -5 -13 3 -4 -2 -23 -12 -41 -9 -18 -16 -39 -15
-46 2 -7 -4 -15 -12 -18 -9 -3 -14 -10 -11 -14 3 -5 -8 -37 -23 -72 -16 -34
-30 -67 -32 -73 -3 -14 -15 -43 -36 -90 -10 -22 -19 -44 -20 -50 -1 -5 -10
-28 -20 -50 -10 -22 -17 -43 -16 -47 1 -5 -3 -8 -9 -8 -5 0 -8 -4 -5 -8 3 -5
-1 -19 -7 -33 -7 -13 -24 -51 -37 -84 -12 -33 -32 -80 -43 -105 -11 -24 -20
-49 -22 -55 -1 -5 -12 -32 -24 -60 -13 -27 -24 -54 -26 -60 -13 -43 -19 -55
-27 -55 -5 0 -7 -4 -4 -9 3 -5 -1 -21 -8 -37 -14 -29 -80 -185 -82 -194 -2
-10 -16 -46 -29 -75 -13 -30 -27 -65 -29 -75 -1 -3 -7 -15 -14 -26 -6 -12 -8
-24 -5 -28 3 -3 1 -6 -5 -6 -7 0 -12 -9 -12 -19 0 -11 -4 -23 -10 -26 -5 -3
-10 -15 -10 -26 0 -10 -5 -19 -11 -19 -5 0 -8 -4 -5 -8 2 -4 -2 -23 -11 -42
-8 -19 -19 -44 -24 -55 -4 -11 -16 -38 -25 -60 -10 -22 -18 -42 -18 -45 -2
-12 -59 -147 -72 -171 -7 -14 -11 -29 -7 -33 3 -3 1 -6 -6 -6 -7 0 -9 -5 -5
-11 3 -6 1 -15 -5 -19 -7 -4 -13 -17 -14 -28 -1 -12 -5 -22 -9 -22 -4 0 -8 -9
-8 -21 0 -13 -4 -18 -12 -13 -7 4 -8 3 -4 -5 4 -6 2 -18 -4 -26 -7 -8 -9 -15
-5 -15 4 0 2 -7 -5 -15 -7 -8 -9 -15 -4 -15 5 0 3 -4 -4 -9 -7 -4 -14 -18 -15
-29 -2 -31 -11 -27 -38 13 -13 19 -27 35 -31 35 -5 0 -8 6 -8 14 0 8 -3 16 -8
18 -4 1 -38 46 -76 98 -38 52 -72 97 -75 100 -11 10 -11 30 1 30 6 0 8 3 5 6
-4 4 1 19 11 33 10 14 24 38 32 54 7 15 17 27 22 27 5 0 7 4 3 9 -3 5 2 17 11
25 8 9 12 16 7 16 -4 0 -3 4 2 8 12 8 54 80 62 105 3 9 10 17 15 17 5 0 6 4 3
10 -3 5 -1 10 4 10 6 0 11 4 11 9 0 14 121 225 134 233 6 4 7 8 3 8 -5 0 1 13
12 29 11 15 18 31 14 35 -3 3 -1 6 5 6 7 0 12 6 12 13 0 7 8 22 18 33 9 11 18
24 19 29 1 6 24 50 52 98 28 48 51 92 51 97 0 6 5 10 10 10 6 0 10 7 10 15 0
8 5 15 12 15 6 0 9 3 5 6 -3 3 12 34 33 69 21 35 37 65 34 67 -2 3 5 13 16 23
11 10 20 24 20 32 0 7 5 13 12 13 6 0 9 3 5 6 -3 3 8 27 24 54 16 26 29 51 29
55 0 4 8 19 19 33 10 15 31 50 45 77 31 57 43 78 69 117 10 16 15 28 10 28 -4
0 -3 4 2 8 13 9 31 38 52 85 10 20 21 37 25 37 5 0 8 6 8 14 0 7 7 19 15 26 9
7 13 15 11 18 -3 2 7 21 22 40 15 20 20 33 12 28 -13 -7 -13 -6 0 6 15 13 27
32 72 117 12 23 25 41 30 41 4 0 5 7 2 15 -4 8 -2 15 3 15 6 0 18 18 29 40 10
22 23 40 27 40 5 0 5 5 2 10 -3 6 -1 10 4 10 6 0 10 3 9 8 -1 4 17 39 40 79
23 39 42 76 42 82 0 6 3 11 6 11 3 0 3 -12 -1 -27z m-2915 7 c0 -5 -5 -10 -11
-10 -5 0 -7 5 -4 10 3 6 8 10 11 10 2 0 4 -4 4 -10z m2630 -15 c-7 -8 -16 -15
-21 -15 -5 0 -1 9 8 20 9 11 19 17 21 15 3 -3 -1 -11 -8 -20z m-2755 -25 c-3
-5 -1 -10 3 -12 5 -1 41 -48 80 -103 40 -55 76 -105 81 -111 5 -6 26 -35 47
-65 40 -56 43 -60 72 -96 9 -11 24 -31 32 -43 8 -12 21 -29 28 -36 7 -8 10
-14 5 -14 -4 0 -3 -4 3 -8 6 -4 50 -61 97 -127 48 -66 99 -132 112 -147 14
-16 22 -28 20 -28 -5 0 64 -95 109 -150 6 -9 26 -36 44 -62 18 -26 39 -54 48
-62 8 -9 12 -16 7 -16 -4 0 -3 -4 2 -8 14 -10 70 -86 68 -92 -1 -3 5 -9 13
-13 8 -4 14 -15 14 -23 0 -8 5 -12 10 -9 6 3 10 1 10 -4 0 -12 87 -131 105
-143 6 -5 6 -8 0 -8 -6 0 -6 -3 0 -8 6 -4 22 -23 35 -42 27 -38 29 -41 65 -85
14 -16 25 -36 25 -42 0 -7 4 -13 8 -13 5 0 24 -22 43 -50 19 -27 38 -50 42
-50 5 0 5 -4 2 -10 -3 -5 -2 -10 2 -10 5 0 17 -13 26 -30 10 -16 23 -35 30
-42 7 -7 28 -34 46 -60 31 -43 32 -48 17 -63 -9 -9 -16 -24 -16 -32 0 -9 -3
-14 -6 -10 -3 3 -23 -20 -44 -51 -21 -31 -54 -75 -72 -96 l-34 -39 -23 44
c-13 24 -42 76 -64 114 -23 39 -42 72 -42 75 0 3 -8 16 -16 30 -43 68 -99 170
-99 179 0 5 -6 16 -12 23 -13 14 -21 27 -60 97 -11 20 -24 41 -29 47 -5 6 -6
14 -2 17 3 4 -2 9 -11 13 -9 3 -13 10 -10 15 3 5 0 9 -5 9 -6 0 -11 5 -11 10
0 14 -92 174 -101 178 -5 2 -5 10 -2 18 3 8 1 14 -4 14 -5 0 -20 20 -32 45
-12 24 -26 47 -32 50 -5 4 -7 11 -4 16 4 5 2 9 -3 9 -4 0 -14 16 -22 35 -8 19
-17 35 -21 35 -4 0 -9 8 -13 18 -3 9 -19 40 -36 67 -16 28 -38 67 -47 88 -10
20 -21 37 -25 37 -5 0 -8 4 -8 9 0 5 -31 64 -69 130 -39 67 -67 121 -63 121 4
0 0 6 -8 13 -9 7 -22 27 -29 45 -7 17 -17 32 -22 32 -5 0 -9 9 -9 20 0 11 -4
20 -10 20 -5 0 -10 7 -10 15 0 8 -5 15 -11 15 -5 0 -8 4 -4 9 3 5 1 12 -4 15
-5 3 -21 29 -36 58 -15 29 -34 61 -43 71 -8 9 -11 17 -7 17 4 0 1 8 -8 18 -10
10 -14 22 -10 25 3 4 1 7 -6 7 -7 0 -9 5 -6 10 3 6 2 10 -3 10 -5 0 -15 12
-22 28 -8 15 -23 39 -33 55 -10 15 -15 27 -10 27 4 0 3 4 -2 8 -14 10 -49 64
-51 80 -2 10 3 9 17 -3 10 -10 16 -21 14 -25z m2887 8 c-7 -7 -12 -8 -12 -2 0
6 3 14 7 17 3 4 9 5 12 2 2 -3 -1 -11 -7 -17z m-2738 -3 c11 -8 16 -18 13 -22
-4 -3 -16 3 -27 15 -23 25 -15 29 14 7z m-285 -8 c6 -8 8 -17 4 -20 -3 -4 -1
-7 5 -7 7 0 12 -4 12 -9 0 -13 92 -175 105 -183 5 -4 6 -8 2 -8 -5 0 1 -13 12
-29 12 -16 21 -32 21 -36 0 -4 9 -20 21 -36 11 -16 17 -29 12 -29 -4 0 -3 -4
2 -8 13 -9 105 -168 105 -182 0 -5 3 -10 8 -10 4 0 16 -19 27 -43 11 -23 23
-44 26 -47 4 -3 24 -38 44 -78 21 -40 42 -75 47 -78 4 -3 6 -10 3 -15 -4 -5
-2 -9 3 -9 4 0 19 -19 31 -42 12 -24 36 -65 52 -93 16 -27 35 -61 42 -75 6
-14 14 -27 18 -30 6 -5 16 -29 18 -43 1 -7 11 -21 39 -52 7 -8 11 -15 8 -15
-4 0 5 -18 19 -40 14 -22 22 -40 18 -40 -5 0 -3 -4 3 -8 6 -4 21 -27 35 -52
13 -25 26 -47 30 -50 3 -3 13 -21 22 -40 10 -19 28 -53 42 -75 14 -22 30 -51
37 -65 11 -22 43 -78 100 -175 10 -16 26 -47 35 -67 10 -21 21 -38 25 -38 5 0
8 -4 8 -10 0 -9 132 -246 148 -265 11 -14 26 -48 24 -57 -1 -5 2 -8 6 -8 5 0
14 -11 20 -24 9 -20 7 -28 -10 -48 -28 -32 -155 -206 -179 -245 -23 -37 -49
-44 -49 -13 0 11 -4 20 -10 20 -5 0 -10 7 -10 16 0 8 -9 34 -19 58 -11 23 -29
67 -41 97 -11 30 -28 69 -37 88 -8 18 -16 39 -17 45 -1 6 -8 21 -14 34 -7 12
-9 22 -5 22 4 0 3 4 -2 8 -6 4 -32 63 -59 132 -27 69 -53 130 -57 135 -4 6 -9
19 -11 30 -1 11 -5 22 -8 25 -7 7 -91 211 -95 234 -3 10 -8 23 -13 30 -5 6
-21 44 -36 83 -15 40 -32 75 -36 78 -5 3 -7 12 -3 20 3 8 -1 15 -8 15 -7 0 -9
3 -6 6 3 4 1 16 -5 28 -7 11 -13 23 -13 26 -1 3 -6 16 -12 30 -6 14 -25 61
-43 105 -17 44 -34 84 -38 90 -4 5 -7 15 -8 21 -2 12 -29 77 -45 106 -5 10 -9
22 -9 27 0 4 -10 30 -22 57 -12 27 -23 51 -23 54 -1 3 -6 16 -12 30 -42 99
-63 155 -63 167 0 8 -4 11 -10 8 -6 -3 -7 1 -4 9 4 9 1 16 -6 16 -7 0 -10 8
-7 20 3 11 2 20 -2 20 -4 0 -14 18 -21 40 -7 22 -17 40 -22 40 -4 0 -8 10 -8
23 0 13 -4 27 -9 32 -5 6 -14 28 -21 50 -7 22 -17 45 -22 51 -5 7 -11 22 -13
35 -3 12 -8 25 -13 28 -4 3 -7 13 -7 21 0 8 -5 21 -12 28 -7 8 -11 18 -8 23 4
5 1 9 -4 9 -6 0 -11 7 -11 15 0 9 -9 34 -20 55 -11 22 -18 40 -14 40 4 0 1 7
-6 15 -7 8 -8 15 -2 15 5 0 15 -6 21 -13z m2810 -82 c-34 -47 -66 -85 -72 -85
-6 0 -7 -3 -4 -6 6 -7 -50 -86 -65 -92 -5 -2 -8 -8 -8 -14 0 -6 -15 -29 -33
-52 -18 -23 -64 -84 -102 -136 -38 -52 -72 -96 -77 -98 -4 -2 -8 -8 -8 -13 0
-5 -9 -20 -21 -33 -12 -13 -22 -28 -22 -33 -1 -8 -7 -15 -54 -71 -13 -15 -23
-30 -23 -34 0 -4 -6 -13 -13 -20 -19 -20 -107 -138 -107 -144 0 -4 -5 -12 -35
-47 -6 -7 -22 -28 -35 -47 -13 -19 -30 -41 -37 -48 -7 -7 -13 -17 -13 -21 0
-5 -13 -22 -30 -39 -16 -18 -30 -36 -30 -41 0 -5 -6 -16 -12 -23 -32 -34 -78
-98 -78 -107 0 -6 -4 -11 -10 -11 -5 0 -10 -7 -10 -16 0 -8 -4 -13 -8 -10 -5
3 -15 -7 -23 -22 -8 -15 -17 -29 -20 -32 -3 -3 -22 -28 -41 -57 -20 -29 -38
-49 -42 -46 -3 4 -6 0 -6 -8 0 -8 -11 -27 -25 -43 -14 -16 -25 -32 -25 -36 0
-4 -9 -18 -21 -31 -11 -13 -29 -34 -39 -46 -10 -12 -16 -24 -13 -27 4 -3 2 -6
-3 -6 -5 0 -20 -18 -34 -40 -22 -36 -60 -55 -60 -31 0 5 -6 16 -12 23 -7 7
-26 31 -43 53 -16 22 -35 46 -42 53 -7 7 -13 18 -13 23 0 6 -6 16 -13 24 -20
21 -39 46 -107 140 -82 114 -157 217 -168 230 -4 6 -10 15 -12 20 -5 13 -20
32 -42 53 -10 9 -18 20 -18 24 0 8 -22 37 -52 69 -9 9 -14 20 -10 23 3 3 0 6
-6 6 -7 0 -12 7 -12 16 0 8 -4 12 -10 9 -5 -3 -10 0 -10 8 0 8 -11 26 -25 41
-13 14 -21 26 -17 26 4 0 2 4 -3 8 -6 4 -35 41 -65 82 -30 41 -58 77 -62 78
-5 2 -8 8 -8 13 0 5 -23 39 -50 74 -28 35 -50 69 -50 75 0 5 -5 10 -10 10 -6
0 -14 8 -17 18 -4 9 -12 22 -17 28 -23 25 -46 54 -46 60 0 5 -11 19 -38 49 -6
7 -12 18 -12 23 0 6 -3 12 -7 14 -10 4 -73 85 -73 93 0 7 -19 30 -42 53 -10 9
-18 22 -18 29 0 7 -3 13 -8 13 -4 0 -18 18 -32 40 -14 22 -28 40 -32 40 -5 0
-8 5 -8 10 0 6 -11 23 -24 37 -24 25 -26 43 -5 43 5 0 9 -4 9 -9 0 -5 15 -25
33 -44 17 -18 70 -76 117 -127 47 -51 99 -108 117 -125 17 -18 29 -36 26 -39
-4 -3 2 -6 12 -6 10 0 16 -3 13 -6 -4 -3 17 -29 45 -58 79 -81 137 -148 137
-158 0 -5 5 -6 10 -3 6 3 10 2 10 -3 0 -8 77 -94 198 -220 23 -25 42 -47 42
-49 0 -3 17 -22 38 -42 20 -21 66 -71 102 -111 36 -39 79 -87 95 -104 17 -18
66 -72 110 -120 44 -49 95 -104 113 -123 l33 -35 62 68 c34 37 83 90 108 116
25 26 44 48 43 48 -4 0 100 113 154 167 17 18 32 37 32 43 0 6 5 8 10 5 6 -3
10 -2 10 2 0 5 16 27 36 49 20 21 73 79 118 128 44 49 97 106 116 126 19 20
55 59 79 86 24 27 82 91 130 143 92 100 103 112 208 228 37 41 87 95 110 119
23 24 39 44 36 44 -9 0 30 29 39 30 4 0 -20 -38 -53 -85z m194 48 c-10 -16
-20 -30 -24 -33 -3 -3 -9 -15 -13 -26 -4 -12 -15 -32 -26 -44 -11 -12 -17 -27
-14 -31 3 -5 0 -9 -5 -9 -6 0 -11 -6 -11 -14 0 -7 -7 -19 -15 -26 -9 -7 -14
-19 -11 -27 3 -7 1 -13 -4 -13 -6 0 -20 -20 -32 -45 -12 -25 -26 -45 -30 -45
-4 0 -8 -9 -8 -20 0 -11 -4 -20 -9 -20 -5 0 -15 -16 -22 -35 -7 -19 -16 -35
-19 -35 -4 0 -12 -16 -20 -35 -8 -19 -17 -35 -22 -35 -4 0 -8 -7 -8 -15 0 -8
-5 -15 -11 -15 -5 0 -8 -4 -4 -10 3 -5 -3 -18 -15 -30 -11 -11 -18 -20 -15
-20 7 0 -43 -89 -63 -112 -8 -10 -12 -18 -8 -18 3 0 -4 -17 -17 -37 -45 -71
-81 -138 -79 -145 1 -5 -3 -8 -8 -8 -6 0 -10 -6 -10 -13 0 -7 -8 -22 -17 -33
-10 -11 -19 -26 -21 -34 -2 -8 -7 -17 -10 -20 -4 -3 -15 -21 -25 -40 -10 -19
-34 -62 -53 -95 -19 -33 -37 -68 -41 -77 -3 -10 -9 -18 -14 -18 -5 0 -9 -6 -9
-13 0 -7 -11 -29 -25 -50 -14 -20 -22 -37 -18 -37 4 0 3 -4 -3 -8 -6 -4 -21
-27 -35 -52 -13 -25 -27 -47 -30 -50 -3 -3 -11 -20 -18 -37 -8 -18 -17 -33
-22 -33 -5 0 -9 -9 -9 -19 0 -11 -4 -21 -8 -23 -5 -1 -28 -39 -52 -83 -24 -44
-48 -83 -54 -87 -6 -4 -7 -8 -2 -8 5 0 3 -8 -5 -17 -8 -10 -20 -28 -27 -41
-17 -30 -65 -118 -88 -162 -11 -19 -22 -37 -25 -40 -3 -3 -16 -24 -29 -48 -22
-38 -25 -41 -32 -22 -4 11 -12 20 -18 20 -5 0 -10 6 -10 13 0 7 -10 23 -23 37
-13 14 -32 40 -42 58 -11 17 -23 32 -27 32 -4 0 -8 7 -8 15 0 8 -3 15 -8 15
-4 0 -13 9 -20 21 -12 18 -9 27 24 75 21 30 41 54 46 54 5 0 6 5 3 10 -3 6 1
13 9 16 9 3 16 10 16 16 0 10 58 88 75 100 7 5 7 8 0 8 -6 0 -6 3 0 8 13 9 75
88 75 95 0 3 13 20 30 38 16 18 27 36 24 41 -3 4 -1 8 3 8 5 0 29 28 53 62 25
34 51 67 58 75 7 7 10 13 6 13 -4 0 3 9 15 19 12 11 22 22 21 25 0 7 12 23 43
57 9 10 17 21 17 24 0 5 118 168 171 237 16 20 29 42 29 48 0 6 5 8 10 5 6 -3
10 -2 10 4 0 11 91 141 128 181 12 14 22 30 22 37 0 6 4 13 8 15 5 2 58 71
118 153 128 177 124 172 147 193 9 9 17 21 17 27 0 5 10 22 23 37 12 15 49 65
82 112 33 47 66 85 73 85 9 1 7 -7 -5 -26z m-3266 -18 c0 -8 -4 -12 -9 -9 -4
3 -8 9 -8 15 0 5 4 9 8 9 5 0 9 -7 9 -15z m3679 -5 c0 -12 -4 -16 -9 -11 -5 5
-6 14 -3 20 10 15 12 14 12 -9z m-1826 -1920 c0 -9 84 -129 99 -140 22 -17 66
-99 63 -118 -2 -12 -8 -20 -13 -17 -5 4 -9 -3 -9 -14 0 -12 -4 -21 -8 -21 -7
0 -27 -43 -29 -64 -1 -5 -6 -12 -12 -15 -10 -6 -45 -64 -73 -121 -7 -14 -20
-31 -28 -38 -13 -12 -13 -13 0 -6 12 6 13 4 3 -6 -16 -17 -29 -2 -74 88 -17
34 -36 62 -41 62 -5 0 -7 4 -4 9 3 5 -4 20 -15 35 -11 14 -17 26 -12 26 4 0 4
4 -2 8 -5 4 -20 26 -33 50 l-23 42 22 33 c13 17 26 34 29 37 3 3 18 23 35 45
16 22 33 43 38 46 5 3 7 8 5 10 -1 2 10 21 26 42 27 35 56 49 56 27z"/>
</g>
</svg>
